<svg width="188" height="91" viewBox="0 0 188 91" fill="none" xmlns="http://www.w3.org/2000/svg">
<path d="M45.5052 16.3729C44.7471 14.1798 43.671 12.1309 42.3286 10.2929C38.1093 4.50128 31.2755 0.740085 23.5616 0.740085C15.8477 0.740085 9.01386 4.50128 4.7945 10.2929C3.50022 12.068 2.4537 14.0356 1.70302 16.1436C0.830306 18.5808 0.353271 21.2066 0.353271 23.9471C0.353271 24.831 0.405042 25.7038 0.497491 26.5581C0.811816 29.3688 1.62906 32.0316 2.85678 34.4466C4.41361 37.5088 6.62868 40.179 9.31709 42.2722C9.99011 41.344 10.8406 40.5525 11.8169 39.9497C12.4455 39.5614 13.1297 39.2507 13.8545 39.0325C14.6643 38.781 15.5296 38.6479 16.4208 38.6479C19.4384 38.6479 22.1009 40.1679 23.6799 42.4905C25.2589 40.1679 27.9214 38.6479 30.9353 38.6479C32.2185 38.6479 33.4351 38.9216 34.5297 39.4171C34.9217 39.591 35.2951 39.7944 35.6501 40.02C36.5413 40.5895 37.3179 41.3107 37.954 42.1539C40.5721 40.0791 42.7354 37.4496 44.2627 34.4466C45.372 32.2646 46.1486 29.8829 46.5184 27.368C46.6848 26.2511 46.7699 25.1083 46.7699 23.9471C46.7699 21.2954 46.3261 18.7472 45.5052 16.3729ZM22.197 5.9954C22.197 5.97691 22.2118 5.96212 22.2303 5.96212H24.4343C24.4528 5.96212 24.4676 5.97691 24.4676 5.9954V7.93702C24.4676 7.95552 24.4528 7.97031 24.4343 7.97031H22.2303C22.2118 7.97031 22.197 7.95552 22.197 7.93702V5.9954ZM6.74702 21.7355L4.7945 21.4951C5.38987 16.6873 8.08197 12.1124 11.9981 9.25732C14.4498 7.47103 17.3231 6.33934 20.3111 5.9917L20.5403 7.94442C17.8889 8.25508 15.3373 9.25732 13.1593 10.8439C9.67579 13.3847 7.27582 17.4565 6.74702 21.7355ZM23.5246 35.4193C16.8794 35.4193 12.0758 30.2009 12.0758 23.3183C12.0758 16.4358 16.8794 11.2174 23.5246 11.2174C30.1698 11.2174 35.0326 16.4358 35.0326 23.3183C35.0326 30.2009 30.1698 35.4193 23.5246 35.4193ZM18.0516 80.5721C18.0516 80.7607 17.8926 80.916 17.7077 80.916H15.5777C15.219 79.7252 14.117 78.8635 12.8227 78.8635C11.3029 78.8635 10.0456 80.0432 9.94943 81.5558C9.94204 81.6187 9.94204 81.6816 9.94204 81.7444C9.94204 83.3347 11.2363 84.6254 12.8227 84.6254C14.1133 84.6254 15.2079 83.7711 15.574 82.5988H17.7114C18.8319 82.5988 19.7416 81.689 19.7416 80.5684V55.1424H18.0553L18.0516 80.5721ZM12.819 82.9464C12.1608 82.9464 11.6209 82.4101 11.6209 81.7481V81.7297L11.6246 81.6742C11.6616 81.0455 12.183 80.5499 12.819 80.5499C13.4551 80.5499 13.9765 81.0418 14.0135 81.6742L14.0172 81.7481C14.0135 82.4064 13.4773 82.9464 12.819 82.9464ZM46.5443 69.0185C46.4481 67.5096 45.1871 66.3261 43.671 66.3261C42.3915 66.3261 41.3006 67.162 40.9308 68.3306H38.7934C38.6048 68.3306 38.4495 68.1716 38.4495 67.983V51.4885H36.7632V67.983C36.7632 69.1036 37.6729 70.0134 38.7934 70.0134H40.9049C41.2525 71.2116 42.3619 72.0881 43.671 72.0881C45.2611 72.0881 46.5517 70.7974 46.5517 69.2071C46.5517 69.148 46.5517 69.0814 46.5443 69.0185ZM43.671 70.4054C43.0128 70.4054 42.4729 69.8691 42.4729 69.2071V69.196L42.4765 69.1332C42.5135 68.5045 43.0386 68.0089 43.671 68.0089C44.3033 68.0089 44.8284 68.5045 44.8654 69.1332L44.8691 69.2071C44.8654 69.8691 44.3292 70.4054 43.671 70.4054ZM38.945 72.5689C37.6507 72.5689 36.5487 73.4269 36.19 74.6178H34.0859C33.8973 74.6178 33.742 74.4587 33.742 74.2738V55.1498H32.0557V74.2738C32.0557 75.3944 32.9654 76.3042 34.0859 76.3042H36.1937C36.5561 77.4803 37.6544 78.3346 38.945 78.3346C40.5351 78.3346 41.8257 77.0439 41.8257 75.4536C41.8257 75.3907 41.8257 75.3279 41.8183 75.2613C41.7185 73.7487 40.4612 72.5652 38.945 72.5689ZM38.945 76.6445C38.2868 76.6445 37.7469 76.1082 37.7469 75.4462V75.4277L37.7506 75.3722C37.7876 74.7435 38.309 74.2479 38.945 74.2479C39.5811 74.2479 40.1025 74.7398 40.1394 75.3722L40.1431 75.4462C40.1394 76.1082 39.6032 76.6445 38.945 76.6445ZM34.2819 78.771C32.9506 78.771 31.8191 79.6771 31.4974 80.9197H29.4154C29.2268 80.9197 29.0715 80.7607 29.0715 80.5758V55.0056H27.3852V80.5758C27.3852 81.6964 28.2949 82.6062 29.4154 82.6062H31.5639C31.9596 83.7304 33.0283 84.5367 34.2819 84.5367C35.872 84.5367 37.1626 83.246 37.1626 81.6557C37.1626 81.5928 37.1626 81.5299 37.1552 81.4634C37.0591 79.9508 35.8018 78.771 34.2819 78.771ZM34.2819 82.8502C33.6237 82.8502 33.0838 82.314 33.0838 81.652V81.6335L33.0875 81.578C33.1245 80.9493 33.6459 80.4537 34.2819 80.4537C34.918 80.4537 35.4394 80.9456 35.4763 81.578L35.48 81.652C35.48 82.3103 34.9401 82.8502 34.2819 82.8502ZM24.4047 84.6476V49.5838H22.7184V84.6439C21.5943 84.9842 20.7548 85.9901 20.6772 87.2106C20.6698 87.2734 20.6698 87.3363 20.6698 87.4029C20.6698 88.9932 21.9641 90.2839 23.5505 90.2839C25.1369 90.2839 26.4312 88.9932 26.4312 87.4029C26.4312 87.34 26.4312 87.2771 26.4238 87.2106C26.3498 85.9938 25.5178 84.9953 24.4047 84.6476ZM23.5505 88.5974C22.8922 88.5974 22.3523 88.0612 22.3523 87.3992V87.3807L22.356 87.3252C22.393 86.6965 22.9144 86.2009 23.5505 86.2009C24.1865 86.2009 24.7079 86.6928 24.7449 87.3252L24.7486 87.3992C24.7486 88.0612 24.2124 88.5974 23.5505 88.5974ZM6.26628 69.9986H8.37411C9.49459 69.9986 10.4043 69.0888 10.4043 67.9682V50.4862H8.71802V67.9682C8.71802 68.1568 8.55901 68.3121 8.37411 68.3121H6.2293C5.85211 67.1546 4.76492 66.3261 3.49283 66.3261C1.97297 66.3261 0.715669 67.5059 0.619523 69.0185C0.612127 69.0814 0.612128 69.1443 0.612128 69.2108C0.612128 70.8011 1.90641 72.0918 3.49283 72.0918C4.80929 72.0918 5.92237 71.2042 6.26628 69.9986ZM3.49283 70.4054C2.83459 70.4054 2.29469 69.8691 2.29469 69.2071V69.1886L2.29839 69.1332C2.33537 68.5045 2.85678 68.0089 3.49283 68.0089C4.12887 68.0089 4.65028 68.5008 4.68726 69.1332L4.69096 69.2071C4.69096 69.8691 4.15476 70.4054 3.49283 70.4054ZM10.9183 76.3005H13.0409C14.1614 76.3005 15.0711 75.3907 15.0711 74.2701V55.0758H13.3848V74.2701C13.3848 74.4587 13.2258 74.6141 13.0409 74.6141H10.922C10.5633 73.4232 9.46131 72.5652 8.16703 72.5652C6.64717 72.5652 5.38987 73.745 5.29372 75.2576C5.28633 75.3205 5.28633 75.3833 5.28633 75.4499C5.28633 77.0402 6.58061 78.3309 8.16703 78.3309C9.45761 78.3309 10.5522 77.4766 10.9183 76.3005ZM8.16333 76.6445C7.50509 76.6445 6.9652 76.1082 6.9652 75.4462V75.4277L6.96889 75.3722C7.00587 74.7435 7.52728 74.2479 8.16333 74.2479C8.79937 74.2479 9.32078 74.7398 9.35776 75.3722L9.36146 75.4462C9.36146 76.1082 8.82526 76.6445 8.16333 76.6445ZM38.8119 44.6688C38.5715 44.1769 38.2831 43.7109 37.954 43.2745C37.3179 42.4313 36.5413 41.7064 35.6501 41.1406C35.2914 40.915 34.918 40.7116 34.5297 40.5377C33.4351 40.0422 32.2185 39.7685 30.9353 39.7685C27.9177 39.7685 25.2552 41.2922 23.6799 43.611C22.1009 41.2922 19.4384 39.7685 16.4245 39.7685C15.5296 39.7685 14.668 39.9016 13.8582 40.1531C13.1334 40.3713 12.4492 40.6857 11.8206 41.0703C10.8443 41.6731 9.99381 42.4646 9.32078 43.3928C9.03974 43.7775 8.79198 44.1843 8.5775 44.6133C7.98583 45.7931 7.65301 47.1281 7.65301 48.5409C7.65301 50.1349 8.07827 51.629 8.82156 52.916C10.334 55.5455 13.174 57.3133 16.4282 57.3133C16.8239 57.3133 17.2122 57.2874 17.5931 57.2357C18.218 57.1506 18.8171 57.0064 19.3903 56.7956C21.1505 56.1631 22.6519 54.9871 23.6836 53.4671C24.7338 55.013 26.2685 56.2075 28.0694 56.8251C28.968 57.1395 29.9368 57.3096 30.9427 57.3096H31.0277C34.2819 57.28 37.1108 55.4716 38.6011 52.8162V52.8125C39.3074 51.5476 39.7142 50.0868 39.7142 48.5335C39.7105 47.1503 39.3888 45.8337 38.8119 44.6688ZM22.2155 49.4729C21.8494 51.7584 20.1632 53.6039 17.9629 54.1993C17.8704 54.2252 17.7743 54.2511 17.6781 54.2696C17.2751 54.3584 16.8572 54.4027 16.4208 54.4027C13.1814 54.4027 10.5559 51.7769 10.5559 48.5372C10.5559 48.5187 10.5559 48.4965 10.5596 48.478C10.567 47.7199 10.7149 46.9987 10.9849 46.3367C11.0588 46.1481 11.1439 45.9669 11.24 45.7894C11.3805 45.5268 11.5396 45.2679 11.7208 45.0312C12.5528 43.918 13.7694 43.1118 15.1746 42.8085C15.5777 42.7197 15.9919 42.6754 16.4171 42.6754C19.3385 42.6754 21.7607 44.813 22.2044 47.6089C22.2377 47.816 22.2599 48.0268 22.271 48.2413C22.2784 48.3412 22.2784 48.441 22.2784 48.5409C22.2858 48.859 22.2636 49.1696 22.2155 49.4729ZM30.9242 54.4064H30.9168C30.4213 54.4064 29.9442 54.3436 29.4857 54.2289C27.2521 53.6705 25.5289 51.8287 25.1369 49.5321C25.0814 49.2103 25.0518 48.8775 25.0518 48.5409C25.0518 48.4337 25.0555 48.3301 25.0592 48.2265C25.0703 47.9973 25.0962 47.7717 25.1369 47.5498C25.6102 44.7834 28.0139 42.6754 30.9168 42.6754C31.7525 42.6754 32.5476 42.8492 33.265 43.1672C34.1673 43.5593 34.9512 44.1732 35.5466 44.9424C35.8609 45.3456 36.1272 45.7894 36.3232 46.2701C36.3232 46.2738 36.3269 46.2738 36.3269 46.2775C36.3491 46.3219 36.3675 46.3663 36.3823 46.4107C36.5746 46.9063 36.7041 47.4314 36.7521 47.9788V47.9825C36.7706 48.1637 36.7817 48.3486 36.7817 48.5372C36.7854 51.7769 34.1636 54.4027 30.9242 54.4064ZM78.0101 0.299988C84.6553 0.299988 89.0447 2.61514 93.3159 6.11375L88.2127 13.5289C85.3061 10.8587 81.867 9.49402 78.0101 9.49402C70.4182 9.49402 65.6737 14.8936 65.6737 21.7133C65.6737 28.533 70.4182 33.9325 78.0101 33.9325C81.867 33.9325 85.3061 32.5678 88.2127 29.8977L93.3122 37.3128C89.041 40.8114 84.6516 43.1266 78.0064 43.1266C63.9468 43.1266 55.1087 33.2779 55.1087 21.7096C55.1087 10.1412 63.9505 0.299988 78.0101 0.299988ZM135.055 0.954589V9.61606H123.547V42.483H113.048V9.61606H101.718V0.954589H135.055ZM143.63 21.717C143.63 10.0303 152.823 0.299988 165.637 0.299988C178.45 0.299988 187.643 10.0303 187.643 21.717C187.643 33.4037 178.45 43.134 165.64 43.134C152.831 43.134 143.63 33.4037 143.63 21.717ZM177.145 21.717C177.145 14.8344 172.282 9.61606 165.637 9.61606C158.991 9.61606 154.188 14.8381 154.188 21.717C154.188 28.5959 158.991 33.8179 165.637 33.8179C172.282 33.8179 177.145 28.5996 177.145 21.717Z" fill="url(#paint0_linear_592_3)"/>
<path d="M90.5313 55.564V57.1062H86.1456V68.7374H84.2633V57.1062H79.8776V55.564H90.5313Z" fill="#0268FE"/>
<path d="M114.649 68.7412H106.273V55.5677H114.649V57.1099H108.156V61.5147H113.821V63.0569H108.156V67.199H114.649V68.7412Z" fill="#0268FE"/>
<path d="M134.415 55.3569C136.353 55.3569 137.632 55.9228 138.764 56.7697L138.028 58.1824C137.144 57.5241 135.768 57.0545 134.415 57.0545C131.12 57.0545 129.219 59.3696 129.219 62.1545C129.219 64.9393 131.12 67.2544 134.415 67.2544C135.768 67.2544 137.144 66.7847 138.028 66.1264L138.764 67.5392C137.636 68.3861 136.356 68.952 134.415 68.952C129.937 68.952 127.3 65.8269 127.3 62.1581C127.3 58.4894 129.937 55.3569 134.415 55.3569Z" fill="#0268FE"/>
<path d="M154.846 63.2269V68.7411H152.964V55.5677H154.846V61.6995H160.999V55.564H162.882V68.7374H160.999V63.2232H154.846V63.2269Z" fill="#0268FE"/>
<defs>
<linearGradient id="paint0_linear_592_3" x1="94.0002" y1="36.7503" x2="94.0002" y2="-10.3183" gradientUnits="userSpaceOnUse">
<stop offset="0.21" stop-color="#003EFD"/>
<stop offset="0.24" stop-color="#0066FF"/>
<stop offset="0.63" stop-color="#0099FF"/>
<stop offset="0.79" stop-color="#66CCFF"/>
</linearGradient>
</defs>
</svg>

